HIERARCHY
ROOT Hips
{
	OFFSET 0.000000 0.000000 0.000000
	CHANNELS 6 Xposition Yposition Zposition Yrotation Xrotation Zrotation
	JOINT Chest
	{
		OFFSET 0.000000 -0.009281 11.569106
		CHANNELS 3 Yrotation Xrotation Zrotation
		JOINT Chest2
		{
			OFFSET -0.000000 0.016865 9.269641
			CHANNELS 3 Yrotation Xrotation Zrotation
			JOINT Chest3
			{
				OFFSET -0.000000 0.000001 8.374491
				CHANNELS 3 Yrotation Xrotation Zrotation
				JOINT Chest4
				{
					OFFSET -0.000000 0.000001 8.374493
					CHANNELS 3 Yrotation Xrotation Zrotation
					JOINT Neck
					{
						OFFSET -0.000000 0.000002 12.152554
						CHANNELS 3 Yrotation Xrotation Zrotation
						JOINT Head
						{
							OFFSET -0.000000 0.040101 7.802319
							CHANNELS 3 Yrotation Xrotation Zrotation
							End Site
							{
								OFFSET -0.000000 0.020947 14.853096
							}
						}
					}
					JOINT RightCollar
					{
						OFFSET 2.894404 0.000001 6.791374
						CHANNELS 3 Yrotation Xrotation Zrotation
						JOINT RightShoulder
						{
							OFFSET 13.574684 0.000001 0.000000
							CHANNELS 3 Yrotation Xrotation Zrotation
							JOINT RightElbow
							{
								OFFSET 23.923903 0.000002 0.000000
								CHANNELS 3 Yrotation Xrotation Zrotation
								JOINT RightWrist
								{
									OFFSET 19.846718 0.012767 0.000000
									CHANNELS 3 Yrotation Xrotation Zrotation
									End Site
									{
										OFFSET 14.973145 0.000001 0.000000
									}
								}
							}
						}
					}
					JOINT LeftCollar
					{
						OFFSET -2.894404 0.000001 6.791374
						CHANNELS 3 Yrotation Xrotation Zrotation
						JOINT LeftShoulder
						{
							OFFSET -13.574684 -0.000001 0.000000
							CHANNELS 3 Yrotation Xrotation Zrotation
							JOINT LeftElbow
							{
								OFFSET -23.923903 -0.000002 0.000000
								CHANNELS 3 Yrotation Xrotation Zrotation
								JOINT LeftWrist
								{
									OFFSET -19.846718 0.012763 0.000000
									CHANNELS 3 Yrotation Xrotation Zrotation
									End Site
									{
										OFFSET -14.973145 -0.000001 0.000000
									}
								}
							}
						}
					}
				}
			}
		}
	}
	JOINT RightHip
	{
		OFFSET 9.469263 0.004643 0.045487
		CHANNELS 3 Yrotation Xrotation Zrotation
		JOINT RightKnee
		{
			OFFSET 0.000000 0.002661 -40.478676
			CHANNELS 3 Yrotation Xrotation Zrotation
			JOINT RightAnkle
			{
				OFFSET 0.000000 0.049106 -35.224068
				CHANNELS 3 Yrotation Xrotation Zrotation
				JOINT RightToe
				{
					OFFSET -0.000001 12.539529 -6.151390
					CHANNELS 3 Yrotation Xrotation Zrotation
					End Site
					{
						OFFSET -0.000001 5.044994 -1.291870
					}
				}
			}
		}
	}
	JOINT LeftHip
	{
		OFFSET -9.469263 0.004641 0.045487
		CHANNELS 3 Yrotation Xrotation Zrotation
		JOINT LeftKnee
		{
			OFFSET 0.000000 0.002661 -40.478676
			CHANNELS 3 Yrotation Xrotation Zrotation
			JOINT LeftAnkle
			{
				OFFSET 0.000000 0.049106 -35.224068
				CHANNELS 3 Yrotation Xrotation Zrotation
				JOINT LeftToe
				{
					OFFSET -0.000001 12.539529 -6.151390
					CHANNELS 3 Yrotation Xrotation Zrotation
					End Site
					{
						OFFSET -0.000001 5.044994 -1.291870
					}
				}
			}
		}
	}
}
MOTION
Frames: 6
Frame Time: 0.016667
-69.747353 163.678833 82.665222 13.196801 4.731091 117.293377 -0.866695 -2.435256 0.303969 1.217172 -0.200306 -0.280093 1.217172 -0.200306 -0.280093 0.912786 -0.150788 -0.209668 5.247873 -19.760835 -1.625205 9.075190 -0.556484 -1.343880 10.143776 0.841455 -2.575304 53.856332 -3.403200 -14.065710 -7.852587 -27.928900 -12.773467 -0.159458 -5.089007 -1.826716 -7.997825 -1.712623 -1.750921 -83.113034 6.163361 -10.399293 -14.479890 17.456534 -27.889698 8.338534 10.092578 -25.985441 11.721474 1.282346 4.751054 2.277510 -6.904326 0.757287 2.246315 -3.350113 4.450287 0.499992 2.618086 0.109584 2.830123 -5.550057 -6.793239 4.052634 -43.995390 8.429452 16.306307 -28.831636 -16.911506 1.726934 69.972358 3.574663 
-71.117134 163.292603 82.311401 13.467332 6.805005 118.986403 0.563900 -1.840758 -0.300032 1.349909 -0.193764 -0.225245 1.349911 -0.193763 -0.225243 1.012360 -0.145822 -0.168505 5.593798 -19.557009 -1.796220 9.658152 -0.180320 -1.536938 10.582107 1.436655 -1.787461 52.843080 -4.530006 -13.521242 -8.225253 -28.852553 -12.758979 -0.352240 -5.737446 -2.129817 -8.236594 -0.962074 -1.279636 -82.961793 5.709317 -9.501709 -13.751675 17.638405 -26.635264 9.090137 10.436141 -26.337694 13.506035 1.601602 4.450142 3.069634 -7.769315 0.771831 1.823046 -1.985320 3.946694 0.211546 2.714788 -0.462836 5.508487 -1.723303 -6.091681 4.715332 -46.604597 6.971532 18.353417 -28.541330 -12.828254 -14.947324 69.644639 -9.359347 
-72.368248 162.906708 81.973343 13.460185 8.462938 120.321172 1.633448 -1.233568 -0.430778 1.394045 -0.280005 -0.158003 1.394042 -0.280003 -0.158003 1.045459 -0.210365 -0.117865 5.984586 -19.212311 -1.984469 10.321530 0.456365 -1.736952 10.712231 1.356634 -1.676402 52.350630 -5.282318 -11.544388 -8.689085 -30.182357 -12.782223 -0.952201 -6.576306 -2.227781 -8.075773 -1.236825 -1.396673 -83.335650 5.835116 -9.712549 -12.476407 17.628549 -24.930477 9.734907 11.255252 -27.130241 14.776450 1.954406 4.848441 3.917388 -8.450504 0.093654 1.127986 -0.314864 3.279389 0.224780 2.391489 -0.480428 7.192261 2.472359 -5.024622 5.387016 -48.638805 5.319030 20.047674 -27.707487 -9.297577 -25.387523 66.831680 -16.590309 
-73.788933 162.381821 81.675461 13.813021 9.305644 122.059551 2.340767 -1.359988 -0.810863 1.369506 -0.375545 -0.128450 1.369504 -0.375544 -0.128446 1.027045 -0.281948 -0.095493 6.388542 -18.837631 -2.156555 11.016014 1.146717 -1.898568 10.345382 0.353699 -2.320779 52.497811 -5.981808 -8.075187 -9.141387 -31.695766 -12.821506 -1.633954 -7.657505 -2.244831 -7.886611 -1.518801 -1.851903 -83.707691 5.969404 -9.734046 -11.087584 18.115815 -23.074988 10.494123 12.121541 -28.152600 15.788073 1.380057 4.311066 4.397147 -8.696567 -0.749492 0.187198 1.043760 2.941116 0.446091 2.292219 -0.270924 8.203563 6.166335 -4.780361 5.316674 -50.113730 4.917900 21.342449 -26.196897 -7.770295 -28.097899 63.233659 -17.379263 
-75.261948 161.914841 81.390350 14.148047 10.079592 123.427488 3.047328 -1.433956 -0.797943 1.345727 -0.427106 -0.130214 1.345727 -0.427105 -0.130209 1.009200 -0.320618 -0.096722 6.736424 -18.540067 -2.308047 11.613391 1.694595 -2.043208 10.048392 -0.249885 -2.817838 52.714529 -7.051115 -4.972491 -9.506065 -33.256591 -12.826333 -2.094793 -8.754348 -2.247227 -7.776732 -1.720198 -2.130501 -83.934077 5.682108 -9.326843 -9.990929 19.418177 -21.258738 11.489638 12.483924 -29.042302 16.953824 0.718053 3.148789 4.407035 -8.945489 -0.712792 -0.689389 2.364790 2.624633 0.713427 2.164598 -0.007213 9.160591 9.956874 -5.173407 4.389666 -50.971619 6.275177 21.765678 -24.675004 -7.818953 -26.900075 59.512374 -15.502759 
-76.618637 161.382645 81.104637 14.433472 10.640202 124.338471 3.543737 -1.511629 -0.383685 1.348387 -0.445197 -0.115549 1.348388 -0.445196 -0.115546 1.011202 -0.334155 -0.085679 6.995581 -18.322111 -2.453053 12.048294 2.098202 -2.208881 10.122047 -0.088253 -2.772252 52.752280 -8.361763 -2.743585 -9.706254 -34.591633 -12.852116 -2.384202 -9.674397 -2.190008 -7.754946 -1.940642 -2.231896 -84.065852 5.327554 -8.709934 -9.144378 21.192105 -19.421959 12.559064 12.173366 -29.514142 17.677800 0.139667 2.177371 4.711583 -9.484894 -0.265896 -1.454480 3.643469 2.406667 0.770531 2.093130 -0.048760 9.845583 13.677612 -5.681480 2.824539 -51.327840 7.990704 21.461359 -23.300434 -7.770222 -24.257072 55.392568 -12.930778 
